<?xml version="1.0" encoding="UTF-8" standalone="no"?>
<!DOCTYPE svg PUBLIC "-//W3C//DTD SVG 1.1//EN" "http://www.w3.org/Graphics/SVG/1.1/DTD/svg11.dtd">
<svg width="100%" height="100%" viewBox="0 0 512 512" version="1.1" xmlns="http://www.w3.org/2000/svg" xmlns:xlink="http://www.w3.org/1999/xlink" xml:space="preserve" xmlns:serif="http://www.serif.com/" style="fill-rule:evenodd;clip-rule:evenodd;stroke-linejoin:round;stroke-miterlimit:2;">
    <g transform="matrix(0.874234,0,0,0.896861,32.1961,14.6256)">
        <g transform="matrix(1.06383,0,0,1.21951,-16.0851,-78.6341)">
            <path d="M346,318.183C346,307.596 335.891,299 323.44,299L180.56,299C168.109,299 158,307.596 158,318.183L158,443.817C158,454.404 168.109,463 180.56,463L323.44,463C335.891,463 346,454.404 346,443.817L346,318.183Z" style="fill:rgb(0,107,148);"/>
        </g>
        <g transform="matrix(1,0,0,1,0,12.265)">
            <path d="M154.904,213L349.096,213C340.479,184.096 313.684,163 282,163L222,163C190.316,163 163.521,184.096 154.904,213Z" style="fill:rgb(0,107,148);"/>
        </g>
        <path d="M137,374L121.657,374C112.65,374 104.337,366.687 102.337,357.68L73.337,254.32C71.589,247.926 76.19,237.682 89.657,238L422.343,238C435.81,237.682 440.411,247.926 438.663,254.32L409.663,357.68C407.663,366.687 399.35,374 390.343,374L367,374L367,298.6C367,283.367 354.633,271 339.4,271L164.6,271C149.367,271 137,283.367 137,298.6L137,374Z" style="fill:rgb(0,107,148);"/>
        <g transform="matrix(1,0,0,1,0,12.265)">
            <path d="M206.5,85.5C206.5,60.388 226.888,40 252,40C277.112,40 297.5,60.388 297.5,85.5L297.5,104.5C297.5,129.612 277.112,150 252,150C226.888,150 206.5,129.612 206.5,104.5L206.5,85.5Z" style="fill:rgb(0,107,148);"/>
        </g>
    </g>
</svg>
